<svg version="1.1" class="clearos-svg clearfoundation app-vendor-clearfoundation app-free app-category-gateway app-sub-category-content-filter-and-proxy" viewBox="0 0 400 400" preserveAspectRatio="xMinYMin" xmlns="http://www.w3.org/2000/svg" xmlns:xlink= "http://www.w3.org/1999/xlink">
<path fill="#AA0707" d="M441.666,184.647"/>
<path fill="#AA0707" d="M473.245,247.805"/>
<path fill="#AA0707" d="M441.666,184.647"/>
<path fill="#AA0707" d="M473.245,247.805"/>
<g>
	<path fill="#686868" d="M252.315,141.794l-49.49,49.497l-72.829-72.836c-6.868-6.868-16.559-8.291-21.669-3.179
		c-5.104,5.089-3.689,14.779,3.187,21.646l78.898,78.892c0.623,0.625,1.275,1.189,1.938,1.727c0.378,0.505,0.78,0.996,1.239,1.454
		c5.111,5.104,13.38,5.104,18.478,0l58.737-58.731c5.104-5.104,5.104-13.38,0-18.469C265.688,136.69,257.419,136.69,252.315,141.794
		z"/>
	<path fill="#686868" d="M200,106.672c12.884,0,23.34-10.448,23.34-23.339S212.884,59.994,200,59.994
		c-12.891,0-23.339,10.448-23.339,23.339S187.109,106.672,200,106.672z"/>
	<path fill="#686868" d="M200,294.254c-12.891,0-23.339,10.439-23.339,23.332c0,12.891,10.448,23.347,23.339,23.347
		c12.884,0,23.34-10.456,23.34-23.347C223.34,304.693,212.884,294.254,200,294.254z"/>
	<path fill="#686868" d="M315.721,180.395c-12.893,0-23.334,10.448-23.334,23.34c0,12.884,10.441,23.34,23.334,23.34
		c12.892,0,23.348-10.456,23.348-23.34C339.066,190.842,328.61,180.395,315.721,180.395z"/>
	<path fill="#686868" d="M87.066,180.395c-12.893,0-23.341,10.448-23.341,23.34c0,12.884,10.449,23.34,23.341,23.34
		c12.89,0,23.339-10.456,23.339-23.34C110.405,190.842,99.957,180.395,87.066,180.395z"/>
	<path fill="#686868" d="M200,4.938C92.265,4.938,4.938,92.265,4.938,200c0,107.729,87.327,195.063,195.063,195.063
		c107.729,0,195.063-87.334,195.063-195.063C395.048,92.265,307.7,4.938,200,4.938z M200,362.385
		c-89.683,0-162.391-72.709-162.391-162.385c0-89.683,72.708-162.391,162.391-162.391c89.676,0,162.385,72.708,162.385,162.391
		C362.385,289.676,289.676,362.385,200,362.385z"/>
</g>
</svg>
